<?xml version="1.0" standalone="no"?>
<!DOCTYPE svg PUBLIC "-//W3C//DTD SVG 20010904//EN"
 "http://www.w3.org/TR/2001/REC-SVG-20010904/DTD/svg10.dtd">
<svg version="1.0" xmlns="http://www.w3.org/2000/svg"
 width="150.000000pt" height="150.000000pt" viewBox="0 0 150.000000 150.000000"
 preserveAspectRatio="xMidYMid meet">
<metadata>
Created by potrace 1.14, written by Peter Selinger 2001-2017
</metadata>
<g transform="translate(0.000000,150.000000) scale(0.100000,-0.100000)"
fill="#000000" stroke="none">
<path d="M361 1313 c-7 -14 -10 -27 -9 -28 10 -8 759 -355 767 -355 15 0 35
41 24 49 -7 7 -89 45 -273 129 -36 16 -139 64 -230 107 -91 43 -188 88 -216
101 l-51 23 -12 -26z"/>
<path d="M244 775 c-14 -34 6 -42 208 -83 183 -37 387 -80 674 -143 111 -24
137 -21 132 13 -3 24 22 17 -408 107 -448 95 -576 121 -588 121 -7 0 -15 -7
-18 -15z"/>
<path d="M97 213 c-4 -3 -7 -17 -7 -30 l0 -23 661 0 660 0 -3 28 -3 27 -651 3
c-358 1 -654 -1 -657 -5z"/>
</g>
</svg>
